<svg xmlns="http://www.w3.org/2000/svg" viewBox="0 0 109.84 56.17"><defs><style>.a{fill:#fff;}</style></defs><path class="a" d="M117.87,32.65h0a2.35,2.35,0,0,1,0,.26v0a1.57,1.57,0,0,1,0,.23,1.68,1.68,0,0,1-.09.32,1.55,1.55,0,0,1-.08.23l-.08.16v0a.86.86,0,0,1-.1.16,1.94,1.94,0,0,1-.21.29h0l-21.37,25a2.6,2.6,0,0,1-3.68.29A2.62,2.62,0,0,1,91.9,56l17.71-20.71h-99a2.61,2.61,0,0,1,0-5.22h98.8L90.12,8.46A2.61,2.61,0,0,1,94,5l23.16,25.89a2.73,2.73,0,0,1,.33.43l0,.09a1.51,1.51,0,0,1,.09.18,1.72,1.72,0,0,1,.1.26.83.83,0,0,1,.06.21l0,.11,0,.23A2.44,2.44,0,0,1,117.87,32.65Z" transform="translate(-8.04 -4.11)"/><path class="a" d="M117.21,30.91a2.19,2.19,0,0,1,.29.39,2.73,2.73,0,0,0-.33-.43Z" transform="translate(-8.04 -4.11)"/></svg>