<svg xmlns="http://www.w3.org/2000/svg" width="227.896" height="247.5" viewBox="0 0 227.896 247.5">
  <g id="Group_18" data-name="Group 18" transform="translate(-1439.052 -575)">
    <path id="Path_3" data-name="Path 3" d="M51.8,4.3a47.5,47.5,0,1,0,47.5,47.5A47.587,47.587,0,0,0,51.8,4.3Zm16.51,50.545L46.463,69.576a4.785,4.785,0,0,1-2.032.508,4.709,4.709,0,0,1-1.778-.508,3.661,3.661,0,0,1-2.032-3.3V37.319a3.964,3.964,0,0,1,2.032-3.3,4.072,4.072,0,0,1,3.81.254L68.307,49a3.438,3.438,0,0,1,1.016,5.08A3.507,3.507,0,0,1,68.307,54.845Z" transform="translate(1501.203 723.206)" fill="#fff"/>
    <path id="Path_4" data-name="Path 4" d="M41.758,7.406V43.852a1.657,1.657,0,1,1-3.313,0V28.589L13.657,43.731a3.358,3.358,0,0,1-3.335.062,3.293,3.293,0,0,1-1.7-2.9V10.369a3.313,3.313,0,0,1,5.032-2.838L38.445,22.67V7.406a1.657,1.657,0,0,1,3.313,0Z" transform="translate(1625.19 749.373)" fill="#fff"/>
    <path id="Path_5" data-name="Path 5" d="M8.625,7.406V43.852a1.657,1.657,0,1,0,3.313,0V28.589L36.726,43.731a3.358,3.358,0,0,0,3.335.062,3.293,3.293,0,0,0,1.7-2.9V10.369a3.313,3.313,0,0,0-5.032-2.838L11.938,22.67V7.406a1.657,1.657,0,0,0-3.313,0Z" transform="translate(1430.427 749.373)" fill="#fff"/>
    <text id="Unstoppable" transform="translate(1447 610)" fill="#fbf8f8" font-size="33" font-family="Poppins-Medium, Poppins" font-weight="500"><tspan x="0" y="0">Unstoppable</tspan></text>
    <text id="SIA" transform="translate(1531 688.987)" fill="#fff" font-size="32" font-family="Poppins-Light, Poppins" font-weight="300"><tspan x="0" y="0">SIA</tspan></text>
    <circle id="Ellipse_4" data-name="Ellipse 4" cx="8" cy="8" r="8" transform="translate(1545 630.494)" fill="#1ed760"/>
  </g>
</svg>
