<?xml version="1.0" encoding="utf-8"?>
<!-- Generator: Adobe Illustrator 24.3.0, SVG Export Plug-In . SVG Version: 6.00 Build 0)  -->
<svg version="1.1" id="Layer_1" xmlns="http://www.w3.org/2000/svg" xmlns:xlink="http://www.w3.org/1999/xlink" x="0px" y="0px"
	 viewBox="0 0 53.3 46" style="enable-background:new 0 0 53.3 46;" xml:space="preserve">
<style type="text/css">
	.st0{fill:#FFFDF6;}
</style>
<path class="st0" d="M1.3,9.8v26.5c0,1.6,1.3,2.9,2.8,2.9h0c0.5,0,1-0.2,1.5-0.4L25,26.9c0.2-0.1,0.4-0.2,0.5-0.4v9.7
	c0,1.6,1.3,2.9,2.8,2.9h0c0.5,0,1-0.2,1.5-0.4l19.3-11.8c1.4-0.8,2.2-2.3,2.2-3.9s-0.8-3.1-2.2-3.9L29.9,7.3c-1.4-0.8-3.1-0.4-4,1
	c-0.3,0.5-0.4,1-0.4,1.5v9.7c-0.2-0.1-0.3-0.3-0.5-0.4L5.7,7.3c-1.4-0.8-3.1-0.4-3.9,1C1.5,8.7,1.3,9.2,1.3,9.8z"/>
</svg>
