<?xml version="1.0" encoding="utf-8"?>
<!-- Generator: Adobe Illustrator 24.3.0, SVG Export Plug-In . SVG Version: 6.00 Build 0)  -->
<svg version="1.1" id="Layer_1" xmlns="http://www.w3.org/2000/svg" xmlns:xlink="http://www.w3.org/1999/xlink" x="0px" y="0px"
	 viewBox="0 0 53.3 46" style="enable-background:new 0 0 53.3 46;" xml:space="preserve">
<style type="text/css">
	.st0{fill:#FFFDF6;}
</style>
<path class="st0" d="M51.4,9.8v26.5c0,1.6-1.3,2.9-2.8,2.9h0c-0.5,0-1-0.2-1.5-0.4L27.7,26.9c-0.2-0.1-0.4-0.2-0.5-0.4v9.7
	c0,1.6-1.3,2.9-2.8,2.9h0c-0.5,0-1-0.2-1.5-0.4L3.5,26.9c-1.4-0.8-2.2-2.3-2.2-3.9s0.8-3.1,2.2-3.9L22.8,7.3c1.4-0.8,3.1-0.4,4,1
	c0.3,0.5,0.4,1,0.4,1.5v9.7c0.2-0.1,0.3-0.3,0.5-0.4L47,7.3c1.4-0.8,3.1-0.4,3.9,1C51.2,8.7,51.4,9.2,51.4,9.8z"/>
</svg>
