<svg xmlns="http://www.w3.org/2000/svg" width="44.616" height="26.102" viewBox="0 0 44.616 26.102">
  <g id="Group_5" data-name="Group 5" transform="translate(0 0)">
    <path id="skip-forward" d="M4.5,19.686,21.913,30.323a2.359,2.359,0,0,0,2.343.043,2.312,2.312,0,0,0,1.192-2.037V6.886a2.328,2.328,0,0,0-3.535-1.994L4.5,15.527Z" transform="translate(19.168 -4.555)" fill="#fff"/>
    <path id="skip-forward-2" data-name="skip-forward" d="M7.613,19.686,25.026,30.323a2.359,2.359,0,0,0,2.343.043,2.312,2.312,0,0,0,1.192-2.037V6.886a2.328,2.328,0,0,0-3.535-1.994L7.613,15.527,4.5,17.509Z" transform="translate(-4.5 -4.555)" fill="#fff"/>
  </g>
</svg>
