<svg xmlns="http://www.w3.org/2000/svg" width="44.615" height="26.102" viewBox="0 0 44.615 26.102">
  <g id="Group_4" data-name="Group 4" transform="translate(-1590.531 -860.776)">
    <path id="skip-forward" d="M25.448,19.686,8.035,30.323a2.359,2.359,0,0,1-2.343.043A2.312,2.312,0,0,1,4.5,28.329V6.886A2.328,2.328,0,0,1,8.035,4.892L25.448,15.527Z" transform="translate(1586.031 856.221)" fill="#fff"/>
    <path id="skip-forward-2" data-name="skip-forward" d="M25.448,19.686,8.035,30.323a2.359,2.359,0,0,1-2.343.043A2.312,2.312,0,0,1,4.5,28.329V6.886A2.328,2.328,0,0,1,8.035,4.892L25.448,15.527l3.113,1.981Z" transform="translate(1606.587 856.221)" fill="#fff"/>
  </g>
</svg>
