<svg xmlns="http://www.w3.org/2000/svg" viewBox="0 0 313.14 274.07"><defs><style>.a{fill:#fff;}</style></defs><path class="a" d="M169.85,284.25a10,10,0,0,1-5.12-1.41c-.27-.16-.53-.33-.79-.5-112.21-73-137.56-126.23-147.1-164.45-1.89-7.56-2.73-12.73-3-14.6a2.61,2.61,0,0,1,0-.31,3.93,3.93,0,0,1-.06-.48,86.15,86.15,0,0,1-.45-8.74A83.58,83.58,0,0,1,169.86,53,83.58,83.58,0,0,1,326.43,93.76c0,2.87-.16,5.81-.45,8.74l-.06.45,0,.24a.34.34,0,0,0,0,.1c-.28,1.87-1.12,7-3,14.6-9.54,38.21-34.88,91.41-147,164.41l-.44.29A10.1,10.1,0,0,1,169.85,284.25ZM33.65,100.56c.21,1.39.94,5.86,2.59,12.5,8.52,34.1,31.49,81.77,133.62,149.24C272,194.83,295,147.16,303.47,113.05c1.63-6.54,2.36-11,2.59-12.46,0-.1,0-.21,0-.34a64.85,64.85,0,0,0,.33-6.49,63.59,63.59,0,0,0-126.65-8.17,10,10,0,0,1-19.84,0A63.59,63.59,0,0,0,33.29,93.76c0,2.12.11,4.3.32,6.49h0A2.89,2.89,0,0,1,33.65,100.56Zm-19.76,3Zm0,0h0Zm-.05-.3c0,.1,0,.2.05.3C13.87,103.43,13.85,103.33,13.84,103.23Zm0-.14v0a.13.13,0,0,0,0-.06ZM316,101.49h0Z" transform="translate(-13.29 -10.18)"/></svg>