<?xml version="1.0" encoding="utf-8"?>
<!-- Generator: Adobe Illustrator 24.3.0, SVG Export Plug-In . SVG Version: 6.00 Build 0)  -->
<svg version="1.1" id="Layer_1" xmlns="http://www.w3.org/2000/svg" xmlns:xlink="http://www.w3.org/1999/xlink" x="0px" y="0px"
	 viewBox="0 0 46 46" style="enable-background:new 0 0 46 46;" xml:space="preserve">
<style type="text/css">
	.st0{fill:#FFFFFF;}
</style>
<path class="st0" d="M5.8,11.5c0-0.8,0.6-1.4,1.4-1.4h31.6c0.8,0,1.4,0.6,1.4,1.4c0,0.8-0.6,1.4-1.4,1.4H7.2
	C6.4,12.9,5.8,12.3,5.8,11.5z M7.2,24.4h21.6c0.8,0,1.4-0.6,1.4-1.4c0-0.8-0.6-1.4-1.4-1.4H7.2c-0.8,0-1.4,0.6-1.4,1.4
	C5.8,23.8,6.4,24.4,7.2,24.4z M20.1,33.1H7.2c-0.8,0-1.4,0.6-1.4,1.4c0,0.8,0.6,1.4,1.4,1.4h12.9c0.8,0,1.4-0.6,1.4-1.4
	C21.6,33.7,20.9,33.1,20.1,33.1z M43.5,20.9l-7.2-2.2c-0.4-0.1-0.9,0-1.3,0.2c-0.4,0.3-0.6,0.7-0.6,1.2v9.4
	c-2.8-1.6-6.3-0.6-7.9,2.1s-0.6,6.3,2.1,7.9c2.8,1.6,6.3,0.6,7.9-2.1c0.5-0.9,0.8-1.9,0.8-2.9V22.1l5.3,1.6c0.8,0.2,1.6-0.2,1.8-1
	C44.7,21.9,44.3,21.1,43.5,20.9L43.5,20.9z"/>
</svg>
