<svg width="46" height="46" fill="#ffffff" viewBox="0 0 24 24" xmlns="http://www.w3.org/2000/svg">
  <path d="M2.25 12.002A6.76 6.76 0 0 1 9 5.252h9v-1.5a.75.75 0 0 1 .46-.694.788.788 0 0 1 .824.16l2.25 2.25a.76.76 0 0 1 0 1.068l-2.25 2.25a.778.778 0 0 1-.825.16A.75.75 0 0 1 18 8.25v-1.5H9A5.25 5.25 0 0 0 3.75 12a.75.75 0 1 1-1.5 0Zm18.75-.75a.75.75 0 0 0-.75.75 5.25 5.25 0 0 1-5.25 5.25H6v-1.5a.75.75 0 0 0-.46-.694.788.788 0 0 0-.824.16l-2.25 2.25a.76.76 0 0 0 0 1.068l2.25 2.25a.778.778 0 0 0 .825.16.75.75 0 0 0 .46-.695v-1.5h9a6.76 6.76 0 0 0 6.75-6.75.75.75 0 0 0-.75-.75Z"></path>
</svg>